<svg width="80" height="80" viewBox="0 0 80 80" fill="none" xmlns="http://www.w3.org/2000/svg">
<path d="M69.4016 5H10.9812C7.78906 5 5 7.29687 5 10.4516V69.0016C5 72.1734 7.78906 75 10.9812 75H69.3844C72.5938 75 75 72.1547 75 69.0016V10.4516C75.0188 7.29687 72.5938 5 69.4016 5ZM26.6984 63.3484H16.6703V32.1688H26.6984V63.3484ZM22.0312 27.4281H21.9594C18.75 27.4281 16.6719 25.0391 16.6719 22.0484C16.6719 19.0031 18.8047 16.6703 22.0859 16.6703C25.3672 16.6703 27.375 18.9859 27.4469 22.0484C27.4453 25.0391 25.3672 27.4281 22.0312 27.4281ZM63.3484 63.3484H53.3203V46.3C53.3203 42.2156 51.8609 39.425 48.2328 39.425C45.4609 39.425 43.8203 41.3 43.0906 43.1266C42.8172 43.7828 42.7438 44.6766 42.7438 45.5891V63.3484H32.7156V32.1688H42.7438V36.5078C44.2031 34.4297 46.4828 31.4391 51.7875 31.4391C58.3703 31.4391 63.35 35.7781 63.35 45.1328L63.3484 63.3484Z" fill="url(#paint0_radial_2_12)"/>
<defs>
<radialGradient id="paint0_radial_2_12" cx="0" cy="0" r="1" gradientUnits="userSpaceOnUse" gradientTransform="translate(40.0001 40) rotate(90) scale(35 35.0001)">
<stop stop-color="#CBE8EA"/>
<stop offset="1" stop-color="#22D4DE"/>
</radialGradient>
</defs>
</svg>
