<svg width="50" height="50" viewBox="0 0 50 50" fill="none" xmlns="http://www.w3.org/2000/svg">
<g id="language_FILL0_wght400_GRAD0_opsz48 1">
<path id="Vector" d="M25 50C21.5 50 18.2292 49.3438 15.1875 48.0312C12.1458 46.7188 9.5 44.9375 7.25 42.6875C5 40.4375 3.22917 37.7812 1.9375 34.7188C0.645833 31.6562 0 28.375 0 24.875C0 21.375 0.645833 18.1146 1.9375 15.0938C3.22917 12.0729 5 9.4375 7.25 7.1875C9.5 4.9375 12.1458 3.17708 15.1875 1.90625C18.2292 0.635417 21.5 0 25 0C28.5 0 31.7708 0.635417 34.8125 1.90625C37.8542 3.17708 40.5 4.9375 42.75 7.1875C45 9.4375 46.7708 12.0729 48.0625 15.0938C49.3542 18.1146 50 21.375 50 24.875C50 28.375 49.3542 31.6562 48.0625 34.7188C46.7708 37.7812 45 40.4375 42.75 42.6875C40.5 44.9375 37.8542 46.7188 34.8125 48.0312C31.7708 49.3438 28.5 50 25 50ZM25 46.375C26.4583 44.875 27.6771 43.1562 28.6562 41.2188C29.6354 39.2812 30.4375 36.9792 31.0625 34.3125H19C19.5833 36.8125 20.3646 39.0625 21.3438 41.0625C22.3229 43.0625 23.5417 44.8333 25 46.375ZM19.6875 45.625C18.6458 44.0417 17.75 42.3333 17 40.5C16.25 38.6667 15.625 36.6042 15.125 34.3125H5.75C7.33333 37.2708 9.16667 39.5938 11.25 41.2812C13.3333 42.9688 16.1458 44.4167 19.6875 45.625ZM30.375 45.5625C33.375 44.6042 36.0729 43.1667 38.4688 41.25C40.8646 39.3333 42.7917 37.0208 44.25 34.3125H34.9375C34.3958 36.5625 33.7604 38.6042 33.0312 40.4375C32.3021 42.2708 31.4167 43.9792 30.375 45.5625ZM4.5 30.5625H14.4375C14.3125 29.4375 14.2396 28.4271 14.2188 27.5312C14.1979 26.6354 14.1875 25.75 14.1875 24.875C14.1875 23.8333 14.2083 22.9062 14.25 22.0938C14.2917 21.2812 14.375 20.375 14.5 19.375H4.5C4.20833 20.375 4.01042 21.2708 3.90625 22.0625C3.80208 22.8542 3.75 23.7917 3.75 24.875C3.75 25.9583 3.80208 26.9271 3.90625 27.7812C4.01042 28.6354 4.20833 29.5625 4.5 30.5625ZM18.3125 30.5625H31.75C31.9167 29.2708 32.0208 28.2188 32.0625 27.4062C32.1042 26.5938 32.125 25.75 32.125 24.875C32.125 24.0417 32.1042 23.2396 32.0625 22.4688C32.0208 21.6979 31.9167 20.6667 31.75 19.375H18.3125C18.1458 20.6667 18.0417 21.6979 18 22.4688C17.9583 23.2396 17.9375 24.0417 17.9375 24.875C17.9375 25.75 17.9583 26.5938 18 27.4062C18.0417 28.2188 18.1458 29.2708 18.3125 30.5625ZM35.5 30.5625H45.5C45.7917 29.5625 45.9896 28.6354 46.0938 27.7812C46.1979 26.9271 46.25 25.9583 46.25 24.875C46.25 23.7917 46.1979 22.8542 46.0938 22.0625C45.9896 21.2708 45.7917 20.375 45.5 19.375H35.5625C35.6875 20.8333 35.7708 21.9479 35.8125 22.7188C35.8542 23.4896 35.875 24.2083 35.875 24.875C35.875 25.7917 35.8438 26.6562 35.7812 27.4688C35.7188 28.2812 35.625 29.3125 35.5 30.5625ZM34.875 15.625H44.25C42.875 12.75 40.9896 10.3542 38.5938 8.4375C36.1979 6.52083 33.4375 5.16667 30.3125 4.375C31.3542 5.91667 32.2396 7.58333 32.9688 9.375C33.6979 11.1667 34.3333 13.25 34.875 15.625ZM19 15.625H31.125C30.6667 13.4167 29.8958 11.2812 28.8125 9.21875C27.7292 7.15625 26.4583 5.33333 25 3.75C23.6667 4.875 22.5417 6.35417 21.625 8.1875C20.7083 10.0208 19.8333 12.5 19 15.625ZM5.75 15.625H15.1875C15.6458 13.375 16.2292 11.3646 16.9375 9.59375C17.6458 7.82292 18.5417 6.10417 19.625 4.4375C16.5 5.22917 13.7708 6.5625 11.4375 8.4375C9.10417 10.3125 7.20833 12.7083 5.75 15.625Z" fill="white"/>
</g>
</svg>
