<svg width="20" height="20" viewBox="0 0 20 20" fill="none" xmlns="http://www.w3.org/2000/svg">
<g id="translate_FILL0_wght400_GRAD0_opsz48 1">
<path id="Vector" d="M9.89583 18.3334L13.6667 8.33341H15.375L19.25 18.3334H17.4375L16.5833 15.7084H12.5833L11.6042 18.3334H9.89583ZM13.0417 14.2501H16L14.5417 10.2084H14.5L13.0417 14.2501ZM3.33333 15.8334L2.18749 14.6876L6.4375 10.4376C5.90972 9.82647 5.44097 9.21189 5.03125 8.59383C4.62152 7.97578 4.26388 7.33341 3.95833 6.66675H5.77083C6.00694 7.12508 6.26736 7.55911 6.55208 7.96883C6.8368 8.37855 7.15972 8.79869 7.52083 9.22925C8.14583 8.57647 8.66666 7.89939 9.08333 7.198C9.5 6.49661 9.85416 5.76397 10.1458 5.00008H0.833328V3.33341H6.66666V1.66675H8.33333V3.33341H14.1667V5.00008H11.8125C11.5069 5.95841 11.1007 6.89939 10.5937 7.823C10.0868 8.74661 9.46527 9.62508 8.72916 10.4584L10.7708 12.5209L10.1458 14.2084L7.5 11.6667L3.33333 15.8334Z" fill="url(#paint0_linear_11_79)"/>
</g>
<defs>
<linearGradient id="paint0_linear_11_79" x1="10.0417" y1="1.66675" x2="10.0417" y2="18.3334" gradientUnits="userSpaceOnUse">
<stop stop-color="#CBE8EA"/>
<stop offset="1" stop-color="#22D4DE"/>
</linearGradient>
</defs>
</svg>
